<mxfile host="app.diagrams.net" modified="2022-10-12T19:02:34.939Z" agent="5.0 (Windows NT 10.0; Win64; x64) AppleWebKit/537.36 (KHTML, like Gecko) Chrome/106.0.0.0 Safari/537.36" etag="0pc6gKajCIAchFIfTLnT" version="20.4.0" type="github">
  <diagram id="-2s6AMxZxXBlZPI53CuW" name="Page-1">
    <mxGraphModel dx="1011" dy="520" grid="1" gridSize="10" guides="1" tooltips="1" connect="1" arrows="1" fold="1" page="1" pageScale="1" pageWidth="850" pageHeight="1100" math="0" shadow="0">
      <root>
        <mxCell id="0" />
        <mxCell id="1" parent="0" />
        <mxCell id="d_bFRLOMs6vkJXwnAd59-1" value="AWS Snowball" style="sketch=0;outlineConnect=0;fontColor=#232F3E;gradientColor=none;strokeColor=#ffffff;fillColor=#232F3E;dashed=0;verticalLabelPosition=middle;verticalAlign=bottom;align=center;html=1;whiteSpace=wrap;fontSize=10;fontStyle=1;spacing=3;shape=mxgraph.aws4.productIcon;prIcon=mxgraph.aws4.snowball;" parent="1" vertex="1">
          <mxGeometry x="200" y="140" width="80" height="100" as="geometry" />
        </mxCell>
        <mxCell id="d_bFRLOMs6vkJXwnAd59-3" value="AWS Database Migration Service" style="sketch=0;outlineConnect=0;fontColor=#232F3E;gradientColor=none;strokeColor=#ffffff;fillColor=#232F3E;dashed=0;verticalLabelPosition=middle;verticalAlign=bottom;align=center;html=1;whiteSpace=wrap;fontSize=10;fontStyle=1;spacing=3;shape=mxgraph.aws4.productIcon;prIcon=mxgraph.aws4.database_migration_service;" parent="1" vertex="1">
          <mxGeometry x="200" y="270" width="80" height="120" as="geometry" />
        </mxCell>
        <mxCell id="d_bFRLOMs6vkJXwnAd59-4" value="" style="outlineConnect=0;dashed=0;verticalLabelPosition=bottom;verticalAlign=top;align=center;html=1;shape=mxgraph.aws3.volume;fillColor=#E05243;gradientColor=none;" parent="1" vertex="1">
          <mxGeometry x="371.75" y="130" width="52.5" height="75" as="geometry" />
        </mxCell>
        <mxCell id="qHO0s8wWGugxzvKNIoIn-1" value="Elastic Block storage&lt;br&gt;" style="text;html=1;strokeColor=none;fillColor=none;align=center;verticalAlign=middle;whiteSpace=wrap;rounded=0;" vertex="1" parent="1">
          <mxGeometry x="364.25" y="230" width="60" height="30" as="geometry" />
        </mxCell>
        <mxCell id="qHO0s8wWGugxzvKNIoIn-2" value="Amazon S3" style="sketch=0;outlineConnect=0;fontColor=#232F3E;gradientColor=none;strokeColor=#ffffff;fillColor=#232F3E;dashed=0;verticalLabelPosition=middle;verticalAlign=bottom;align=center;html=1;whiteSpace=wrap;fontSize=10;fontStyle=1;spacing=3;shape=mxgraph.aws4.productIcon;prIcon=mxgraph.aws4.s3;" vertex="1" parent="1">
          <mxGeometry x="360" y="275" width="76" height="90" as="geometry" />
        </mxCell>
        <mxCell id="qHO0s8wWGugxzvKNIoIn-3" value="Internet&#xa;gateway" style="sketch=0;outlineConnect=0;fontColor=#232F3E;gradientColor=none;strokeColor=#232F3E;fillColor=#ffffff;dashed=0;verticalLabelPosition=bottom;verticalAlign=top;align=center;html=1;fontSize=12;fontStyle=0;aspect=fixed;shape=mxgraph.aws4.resourceIcon;resIcon=mxgraph.aws4.internet_gateway;" vertex="1" parent="1">
          <mxGeometry x="60" y="140" width="80" height="80" as="geometry" />
        </mxCell>
        <mxCell id="qHO0s8wWGugxzvKNIoIn-4" value="Amazon VPC" style="sketch=0;outlineConnect=0;fontColor=#232F3E;gradientColor=none;strokeColor=#ffffff;fillColor=#232F3E;dashed=0;verticalLabelPosition=middle;verticalAlign=bottom;align=center;html=1;whiteSpace=wrap;fontSize=10;fontStyle=1;spacing=3;shape=mxgraph.aws4.productIcon;prIcon=mxgraph.aws4.vpc;" vertex="1" parent="1">
          <mxGeometry x="60" y="270" width="80" height="100" as="geometry" />
        </mxCell>
        <mxCell id="qHO0s8wWGugxzvKNIoIn-5" value="Connection fron on premise to cloud" style="text;html=1;strokeColor=none;fillColor=none;align=center;verticalAlign=middle;whiteSpace=wrap;rounded=0;" vertex="1" parent="1">
          <mxGeometry x="70" y="50" width="60" height="30" as="geometry" />
        </mxCell>
        <mxCell id="qHO0s8wWGugxzvKNIoIn-6" value="Data Migration" style="text;html=1;strokeColor=none;fillColor=none;align=center;verticalAlign=middle;whiteSpace=wrap;rounded=0;" vertex="1" parent="1">
          <mxGeometry x="210" y="50" width="60" height="30" as="geometry" />
        </mxCell>
        <mxCell id="qHO0s8wWGugxzvKNIoIn-7" value="Data storage" style="text;html=1;strokeColor=none;fillColor=none;align=center;verticalAlign=middle;whiteSpace=wrap;rounded=0;" vertex="1" parent="1">
          <mxGeometry x="367" y="50" width="60" height="30" as="geometry" />
        </mxCell>
        <mxCell id="qHO0s8wWGugxzvKNIoIn-8" value="Amazon Athena" style="sketch=0;outlineConnect=0;fontColor=#232F3E;gradientColor=none;strokeColor=#ffffff;fillColor=#232F3E;dashed=0;verticalLabelPosition=middle;verticalAlign=bottom;align=center;html=1;whiteSpace=wrap;fontSize=10;fontStyle=1;spacing=3;shape=mxgraph.aws4.productIcon;prIcon=mxgraph.aws4.athena;" vertex="1" parent="1">
          <mxGeometry x="520" y="130" width="80" height="110" as="geometry" />
        </mxCell>
        <mxCell id="qHO0s8wWGugxzvKNIoIn-9" value="Amazon Redshift" style="sketch=0;outlineConnect=0;fontColor=#232F3E;gradientColor=none;strokeColor=#ffffff;fillColor=#232F3E;dashed=0;verticalLabelPosition=middle;verticalAlign=bottom;align=center;html=1;whiteSpace=wrap;fontSize=10;fontStyle=1;spacing=3;shape=mxgraph.aws4.productIcon;prIcon=mxgraph.aws4.redshift;" vertex="1" parent="1">
          <mxGeometry x="520" y="280" width="80" height="110" as="geometry" />
        </mxCell>
        <mxCell id="qHO0s8wWGugxzvKNIoIn-10" value="Data warehouse" style="text;html=1;strokeColor=none;fillColor=none;align=center;verticalAlign=middle;whiteSpace=wrap;rounded=0;" vertex="1" parent="1">
          <mxGeometry x="540" y="50" width="60" height="30" as="geometry" />
        </mxCell>
        <mxCell id="qHO0s8wWGugxzvKNIoIn-11" value="Data Visualization" style="text;html=1;strokeColor=none;fillColor=none;align=center;verticalAlign=middle;whiteSpace=wrap;rounded=0;" vertex="1" parent="1">
          <mxGeometry x="710" y="50" width="60" height="30" as="geometry" />
        </mxCell>
        <mxCell id="qHO0s8wWGugxzvKNIoIn-12" value="" style="shape=image;html=1;verticalAlign=top;verticalLabelPosition=bottom;labelBackgroundColor=#ffffff;imageAspect=0;aspect=fixed;image=https://cdn1.iconfinder.com/data/icons/ionicons-fill-vol-2/512/logo-tableau-128.png" vertex="1" parent="1">
          <mxGeometry x="706" y="120" width="68" height="68" as="geometry" />
        </mxCell>
        <mxCell id="qHO0s8wWGugxzvKNIoIn-13" value="Tableau" style="text;html=1;strokeColor=none;fillColor=none;align=center;verticalAlign=middle;whiteSpace=wrap;rounded=0;" vertex="1" parent="1">
          <mxGeometry x="710" y="200" width="60" height="30" as="geometry" />
        </mxCell>
      </root>
    </mxGraphModel>
  </diagram>
</mxfile>
